<svg xmlns="http://www.w3.org/2000/svg" viewBox="0 0 64 64">
  <rect width="64" height="64" rx="12" fill="#0a0a0a"/>
  <g transform="translate(32,32)" fill="none" stroke-width="1.5" stroke-linecap="round">
    <!-- k=0 紅 -->
    <path d="M0,-18 C10,-14 16,-6 14,4 C12,14 4,18 -4,16 C-12,14 -16,6 -14,-4 C-12,-14 -4,-18 0,-18Z" stroke="hsl(0,80%,65%)" opacity="0.8"/>
    <!-- k=1 橙黃 -->
    <path d="M17,-6 C14,4 8,14 -2,16 C-12,18 -18,10 -16,0 C-14,-10 -6,-16 4,-14 C14,-12 18,-8 17,-6Z" stroke="hsl(72,80%,65%)" opacity="0.8"/>
    <!-- k=2 綠 -->
    <path d="M11,14 C2,16 -10,12 -16,4 C-18,-6 -12,-14 -2,-16 C8,-18 16,-10 16,0 C16,10 14,16 11,14Z" stroke="hsl(144,80%,65%)" opacity="0.8"/>
    <!-- k=3 藍 -->
    <path d="M-6,17 C-14,12 -16,2 -10,-8 C-4,-18 6,-18 14,-12 C18,-4 14,8 8,14 C2,18 -2,18 -6,17Z" stroke="hsl(216,80%,65%)" opacity="0.8"/>
    <!-- k=4 紫 -->
    <path d="M-16,4 C-14,-8 -6,-16 4,-16 C14,-16 18,-6 14,4 C10,14 0,18 -8,16 C-14,12 -18,8 -16,4Z" stroke="hsl(288,80%,65%)" opacity="0.8"/>
    <!-- 內圈結構線 -->
    <circle cx="0" cy="0" r="6" stroke="white" stroke-width="0.8" opacity="0.2"/>
  </g>
</svg>
